<svg width="340" height="21" viewBox="0 0 340 21" fill="none" xmlns="http://www.w3.org/2000/svg">
<g clip-path="url(#clip0_5_424)">
<path d="M9.07088 1.64457C9.41462 0.785142 10.5854 0.785143 10.9291 1.64457L12.9579 6.71708C13.1029 7.0794 13.4306 7.32696 13.8067 7.35831L19.0727 7.79735C19.9649 7.87173 20.3267 9.02961 19.6469 9.63516L15.6348 13.2092C15.3482 13.4644 15.223 13.8651 15.3106 14.2466L16.5363 19.5905C16.744 20.4959 15.7969 21.2116 15.033 20.7264L10.5245 17.8627C10.2025 17.6581 9.7975 17.6581 9.47548 17.8627L4.96699 20.7264C4.20311 21.2116 3.25596 20.4959 3.46363 19.5905L4.68942 14.2466C4.77698 13.8651 4.65182 13.4644 4.36526 13.2092L0.353062 9.63516C-0.326718 9.02961 0.035068 7.87173 0.927291 7.79735L6.19336 7.35831C6.5695 7.32696 6.89716 7.0794 7.04207 6.71708L9.07088 1.64457Z" fill="#CF6F49"/>
</g>
<g clip-path="url(#clip1_5_424)">
<path d="M57.0709 1.64457C57.4146 0.785142 58.5854 0.785143 58.9291 1.64457L60.9579 6.71708C61.1029 7.0794 61.4306 7.32696 61.8067 7.35831L67.0727 7.79735C67.9649 7.87173 68.3267 9.02961 67.6469 9.63516L63.6348 13.2092C63.3482 13.4644 63.223 13.8651 63.3106 14.2466L64.5363 19.5905C64.744 20.4959 63.7969 21.2116 63.033 20.7264L58.5245 17.8627C58.2025 17.6581 57.7975 17.6581 57.4755 17.8627L52.967 20.7264C52.2031 21.2116 51.256 20.4959 51.4636 19.5905L52.6894 14.2466C52.777 13.8651 52.6518 13.4644 52.3653 13.2092L48.3531 9.63516C47.6733 9.02961 48.0351 7.87173 48.9273 7.79735L54.1934 7.35831C54.5695 7.32696 54.8972 7.0794 55.0421 6.71708L57.0709 1.64457Z" fill="#CF6F49"/>
</g>
<g clip-path="url(#clip2_5_424)">
<path d="M105.071 1.64457C105.415 0.785142 106.585 0.785143 106.929 1.64457L108.958 6.71708C109.103 7.0794 109.431 7.32696 109.807 7.35831L115.073 7.79735C115.965 7.87173 116.327 9.02961 115.647 9.63516L111.635 13.2092C111.348 13.4644 111.223 13.8651 111.311 14.2466L112.536 19.5905C112.744 20.4959 111.797 21.2116 111.033 20.7264L106.524 17.8627C106.203 17.6581 105.797 17.6581 105.475 17.8627L100.967 20.7264C100.203 21.2116 99.256 20.4959 99.4636 19.5905L100.689 14.2466C100.777 13.8651 100.652 13.4644 100.365 13.2092L96.3531 9.63516C95.6733 9.02961 96.0351 7.87173 96.9273 7.79735L102.193 7.35831C102.569 7.32696 102.897 7.0794 103.042 6.71708L105.071 1.64457Z" fill="#CF6F49"/>
</g>
<g clip-path="url(#clip3_5_424)">
<path d="M33.0709 1.64457C33.4146 0.785142 34.5854 0.785143 34.9291 1.64457L36.9579 6.71708C37.1029 7.0794 37.4306 7.32696 37.8067 7.35831L43.0727 7.79735C43.9649 7.87173 44.3267 9.02961 43.6469 9.63516L39.6348 13.2092C39.3482 13.4644 39.223 13.8651 39.3106 14.2466L40.5363 19.5905C40.744 20.4959 39.7969 21.2116 39.033 20.7264L34.5245 17.8627C34.2025 17.6581 33.7975 17.6581 33.4755 17.8627L28.967 20.7264C28.2031 21.2116 27.256 20.4959 27.4636 19.5905L28.6894 14.2466C28.777 13.8651 28.6518 13.4644 28.3653 13.2092L24.3531 9.63516C23.6733 9.02961 24.0351 7.87173 24.9273 7.79735L30.1934 7.35831C30.5695 7.32696 30.8972 7.0794 31.0421 6.71708L33.0709 1.64457Z" fill="#CF6F49"/>
</g>
<g clip-path="url(#clip4_5_424)">
<path d="M81.0709 1.64457C81.4146 0.785142 82.5854 0.785143 82.9291 1.64457L84.9579 6.71708C85.1029 7.0794 85.4306 7.32696 85.8067 7.35831L91.0727 7.79735C91.9649 7.87173 92.3267 9.02961 91.6469 9.63516L87.6348 13.2092C87.3482 13.4644 87.223 13.8651 87.3106 14.2466L88.5363 19.5905C88.744 20.4959 87.7969 21.2116 87.033 20.7264L82.5245 17.8627C82.2025 17.6581 81.7975 17.6581 81.4755 17.8627L76.967 20.7264C76.2031 21.2116 75.256 20.4959 75.4636 19.5905L76.6894 14.2466C76.777 13.8651 76.6518 13.4644 76.3653 13.2092L72.3531 9.63516C71.6733 9.02961 72.0351 7.87173 72.9273 7.79735L78.1934 7.35831C78.5695 7.32696 78.8972 7.0794 79.0421 6.71708L81.0709 1.64457Z" fill="#CF6F49"/>
</g>
<defs>
<clipPath id="clip0_5_424">
<rect width="20" height="20" fill="white" transform="translate(0 1)"/>
</clipPath>
<clipPath id="clip1_5_424">
<rect width="20" height="20" fill="white" transform="translate(48 1)"/>
</clipPath>
<clipPath id="clip2_5_424">
<rect width="20" height="20" fill="white" transform="translate(96 1)"/>
</clipPath>
<clipPath id="clip3_5_424">
<rect width="20" height="20" fill="white" transform="translate(24 1)"/>
</clipPath>
<clipPath id="clip4_5_424">
<rect width="20" height="20" fill="white" transform="translate(72 1)"/>
</clipPath>
</defs>
</svg>
